HIERARCHY
ROOT SimulationBone
{
	OFFSET 0.000000 0.000000 0.000000
	CHANNELS 6 Xposition Yposition Zposition Zrotation Yrotation Xrotation 
	JOINT Hips
	{
		OFFSET 0.000000 0.000000 0.000000
		CHANNELS 6 Xposition Yposition Zposition Zrotation Yrotation Xrotation 
		JOINT LeftUpLeg
		{
			OFFSET 0.103459 1.857823 10.548503
			CHANNELS 3 Zrotation Yrotation Xrotation
			JOINT LeftLeg
			{
				OFFSET 43.499996 -0.000023 0.000000
				CHANNELS 3 Zrotation Yrotation Xrotation
				JOINT LeftFoot
				{
					OFFSET 42.372200 0.000004 0.000000
					CHANNELS 3 Zrotation Yrotation Xrotation
					JOINT LeftToe
					{
						OFFSET 17.300018 0.000006 0.000005
						CHANNELS 3 Zrotation Yrotation Xrotation
						End Site
						{
							OFFSET 0.000000 0.000000 0.000000
						}
					}
				}
			}
		}
		JOINT RightUpLeg
		{
			OFFSET 0.103455 1.857822 -10.548502
			CHANNELS 3 Zrotation Yrotation Xrotation
			JOINT RightLeg
			{
				OFFSET 43.500046 0.000008 0.000013
				CHANNELS 3 Zrotation Yrotation Xrotation
				JOINT RightFoot
				{
					OFFSET 42.372261 -0.000023 0.000013
					CHANNELS 3 Zrotation Yrotation Xrotation
					JOINT RightToe
					{
						OFFSET 17.299988 -0.000007 0.000011
						CHANNELS 3 Zrotation Yrotation Xrotation
						End Site
						{
							OFFSET 0.000000 0.000000 0.000000
						}
					}
				}
			}
		}
		JOINT Spine
		{
			OFFSET 6.901964 -2.603734 -0.000001
			CHANNELS 3 Zrotation Yrotation Xrotation
			JOINT Spine1
			{
				OFFSET 12.588106 0.000013 -0.000000
				CHANNELS 3 Zrotation Yrotation Xrotation
				JOINT Spine2
				{
					OFFSET 12.343193 -0.000017 0.000001
					CHANNELS 3 Zrotation Yrotation Xrotation
					JOINT Neck
					{
						OFFSET 25.832893 -0.000002 -0.000002
						CHANNELS 3 Zrotation Yrotation Xrotation
						JOINT Head
						{
							OFFSET 11.766612 0.000007 0.000002
							CHANNELS 3 Zrotation Yrotation Xrotation
							End Site
							{
								OFFSET 0.000000 0.000000 0.000000
							}
						}
					}
					JOINT LeftShoulder
					{
						OFFSET 19.745903 -1.480356 6.000103
						CHANNELS 3 Zrotation Yrotation Xrotation
						JOINT LeftArm
						{
							OFFSET 11.284128 0.000005 -0.000009
							CHANNELS 3 Zrotation Yrotation Xrotation
							JOINT LeftForeArm
							{
								OFFSET 33.000053 -0.000022 0.000028
								CHANNELS 3 Zrotation Yrotation Xrotation
								JOINT LeftHand
								{
									OFFSET 25.200006 0.000028 0.000005
									CHANNELS 3 Zrotation Yrotation Xrotation
									End Site
									{
										OFFSET 0.000000 0.000000 0.000000
									}
								}
							}
						}
					}
					JOINT RightShoulder
					{
						OFFSET 19.746094 -1.480350 -6.000075
						CHANNELS 3 Zrotation Yrotation Xrotation
						JOINT RightArm
						{
							OFFSET 11.284135 -0.000011 -0.000017
							CHANNELS 3 Zrotation Yrotation Xrotation
							JOINT RightForeArm
							{
								OFFSET 33.000092 0.000037 0.000003
								CHANNELS 3 Zrotation Yrotation Xrotation
								JOINT RightHand
								{
									OFFSET 25.199785 0.000114 0.000427
									CHANNELS 3 Zrotation Yrotation Xrotation
									End Site
									{
										OFFSET 0.000000 0.000000 0.000000
									}
								}
							}
						}
					}
				}
			}
		}
	}
}
MOTION
Frames: 6
Frame Time: 0.016667
12.486044 0.000000 389.182403 0.000000 -89.618286 0.000000 -7.445696 89.054878 1.760464 86.253989 2.209392 -176.889775 159.253674 -2.499410 173.099779 -45.846770 2.049969 4.056083 89.260893 -2.312227 3.092306 21.454557 0.003105 0.000020 155.838102 9.454702 -174.906187 -63.238815 6.051522 -2.108777 82.794862 1.909463 2.648354 21.454551 -0.003087 -0.000003 11.822129 -0.324909 0.018537 13.631633 -0.649690 -0.001375 13.313509 -0.649796 0.002531 0.252631 -2.379748 -3.671331 -32.552250 8.254642 -8.621466 161.355801 -74.713796 17.659105 -12.600678 53.662069 23.747175 -57.070495 -23.132913 2.579599 -0.350282 -16.946147 14.908594 -157.049924 80.820727 24.832712 -7.329969 -61.609370 -23.243435 -76.314495 14.677571 -2.735193 -2.877375 4.973681 -44.834081 
12.780607 0.000000 390.093589 0.000000 -88.879531 0.000000 -7.096756 89.102945 1.619974 86.588449 1.933735 -177.610617 160.587729 -2.197730 172.696176 -45.641392 2.081863 4.160404 89.256528 -2.357072 3.247322 21.454558 0.003118 0.000018 154.797378 9.004603 -174.374033 -61.378069 6.245751 -1.941704 83.590559 1.752599 2.607477 21.454548 -0.003078 0.000002 11.781466 -0.361523 -0.033389 13.550687 -0.716549 -0.108940 13.232563 -0.717334 -0.104621 0.346208 -2.222928 -3.626439 -32.062540 8.273007 -8.507124 161.384676 -74.808541 17.625263 -12.643776 53.763977 23.976562 -57.604717 -23.052844 2.593930 -0.322810 -16.864917 14.651538 -156.294596 80.806918 25.599039 -7.500359 -61.539480 -24.811888 -74.750582 15.366970 -2.719494 -2.330963 4.865071 -42.401664 
13.040229 0.000000 391.074162 0.000000 -88.172926 0.000000 -6.786808 89.168587 1.467284 86.950170 1.773468 -178.292157 161.956940 -1.996987 172.408113 -45.414989 2.071632 4.243447 89.198062 -2.389084 3.379386 21.454557 0.003117 0.000017 153.970877 8.446407 -173.598875 -58.962433 6.263802 -1.476644 84.196561 1.423343 2.638569 21.454550 -0.003086 0.000003 11.745081 -0.370902 -0.075821 13.478210 -0.730335 -0.194383 13.160083 -0.731634 -0.189980 0.546232 -2.064432 -3.652554 -31.687255 8.169416 -8.414065 160.987407 -74.855734 18.028638 -12.619657 53.830399 24.166101 -58.115702 -22.880164 2.601666 -0.215588 -16.802212 14.295729 -155.545439 80.735021 26.360504 -7.527382 -61.344270 -26.407612 -73.129714 15.981842 -2.691205 -1.804478 4.773135 -40.020871 
13.267630 0.000000 392.121547 0.000000 -87.500208 0.000000 -6.507967 89.225880 1.299026 87.323389 1.643416 -178.942810 163.367819 -1.812641 172.179289 -45.157578 2.039185 4.310720 89.130573 -2.413279 3.488084 21.454555 0.003109 0.000016 153.291843 7.841334 -172.770232 -56.099192 6.205547 -0.784697 84.500675 0.915346 2.523122 21.454553 -0.003098 0.000002 11.709702 -0.371757 -0.119615 13.407731 -0.727045 -0.281548 13.089600 -0.728857 -0.277167 0.837244 -1.933243 -3.702790 -31.425931 8.022578 -8.339823 160.454807 -74.859889 18.572092 -12.563088 53.854238 24.342704 -58.615469 -22.665566 2.605914 -0.057183 -16.744123 13.851346 -154.852012 80.640818 27.066125 -7.467091 -61.105207 -28.019875 -71.417134 16.586858 -2.660105 -1.301892 4.665082 -37.797576 
13.465526 0.000000 393.233173 0.000000 -86.862888 0.000000 -6.252326 89.248901 1.112262 87.696469 1.457846 -179.572071 164.825538 -1.557600 171.957662 -44.859100 2.004379 4.367864 89.099113 -2.434873 3.572960 21.454555 0.003102 0.000017 152.698795 7.246904 -172.077682 -52.892260 6.173434 0.071897 84.395449 0.222736 2.047034 21.454555 -0.003102 0.000001 11.672090 -0.382818 -0.175601 13.332906 -0.742760 -0.394185 13.014774 -0.745243 -0.389709 1.204089 -1.858635 -3.730725 -31.277679 7.911061 -8.280755 160.081492 -74.827396 18.954691 -12.508984 53.828524 24.533086 -59.116393 -22.459679 2.610696 0.123699 -16.676935 13.328584 -154.250694 80.560408 27.678099 -7.365575 -60.905000 -29.646773 -69.576609 17.247196 -2.631289 -0.829525 4.510268 -35.839139 
13.636637 0.000000 394.406468 0.000000 -86.262302 0.000000 -6.014180 89.218447 0.906684 88.062166 1.159117 179.814759 166.333155 -1.171591 171.714586 -44.507474 1.979896 4.419495 89.143522 -2.458104 3.634123 21.454556 0.003102 0.000019 152.149757 6.703718 -171.633322 -49.433106 6.213749 1.025447 83.819158 -0.616314 1.182740 21.454554 -0.003091 0.000001 11.629355 -0.417069 -0.250496 13.248110 -0.802620 -0.547136 12.929983 -0.806035 -0.542293 1.627175 -1.857964 -3.706339 -31.223443 7.887751 -8.232684 160.067431 -74.761869 18.972233 -12.483950 53.743625 24.765945 -59.622706 -22.308775 2.619848 0.282924 -16.575515 12.777713 -153.755012 80.512956 28.182113 -7.246717 -60.799132 -31.289352 -67.580830 17.995828 -2.602955 -0.403540 4.305786 -34.228517 
